<svg viewBox="0 0 34 41" fill="none" xmlns="http://www.w3.org/2000/svg" xmlns:xlink="http://www.w3.org/1999/xlink" x="0" y="0"><g id="SVG_23">
<path id="Vector_27" d="M22.67,35.88v-3.42c0,-1.81 -0.6,-3.55 -1.66,-4.83c-1.07,-1.29 -2.51,-2.01 -4.01,-2.01h-8.5c-1.5,0 -2.94,0.72 -4.01,2.01c-1.06,1.28 -1.66,3.02 -1.66,4.83v3.42" stroke="#CB997E" stroke-linecap="round" stroke-linejoin="round"/>
<path id="Vector_28" d="M12.75,18.79c3.13,0 5.67,-3.06 5.67,-6.83c0,-3.78 -2.54,-6.84 -5.67,-6.84c-3.13,0 -5.67,3.06 -5.67,6.84c0,3.77 2.54,6.83 5.67,6.83z" stroke="#CB997E" stroke-linecap="round" stroke-linejoin="round"/>
<path id="Vector_29" d="M31.17,35.88v-3.42c0,-1.52 -0.42,-2.99 -1.19,-4.18c-0.77,-1.2 -1.85,-2.05 -3.06,-2.43" stroke="#CB997E" stroke-linecap="round" stroke-linejoin="round"/>
<path id="Vector_30" d="M22.67,5.35c1.22,0.37 2.3,1.23 3.07,2.43c0.77,1.2 1.19,2.67 1.19,4.19c0,1.51 -0.42,2.99 -1.19,4.19c-0.77,1.2 -1.85,2.05 -3.07,2.43" stroke="#CB997E" stroke-linecap="round" stroke-linejoin="round"/>
</g></svg>