<svg viewBox="0 0 47 40" fill="none" xmlns="http://www.w3.org/2000/svg" xmlns:xlink="http://www.w3.org/1999/xlink" x="0" y="0"><g id="SVG_22">
<path id="Vector_22" d="M11.75,15c3.245,0 5.875,-2.24 5.875,-5c0,-2.76 -2.63,-5 -5.875,-5c-3.245,0 -5.875,2.24 -5.875,5c0,2.76 2.63,5 5.875,5z" stroke="#CB997E" stroke-linecap="round" stroke-linejoin="round"/>
<path id="Vector_23" d="M15.902,13.53l7.598,6.47" stroke="#CB997E" stroke-linecap="round" stroke-linejoin="round"/>
<path id="Vector_24" d="M39.167,6.67l-23.265,19.8" stroke="#CB997E" stroke-linecap="round" stroke-linejoin="round"/>
<path id="Vector_25" d="M11.75,35c3.245,0 5.875,-2.24 5.875,-5c0,-2.76 -2.63,-5 -5.875,-5c-3.245,0 -5.875,2.24 -5.875,5c0,2.76 2.63,5 5.875,5z" stroke="#CB997E" stroke-linecap="round" stroke-linejoin="round"/>
<path id="Vector_26" d="M28.983,24.67l10.184,8.66" stroke="#CB997E" stroke-linecap="round" stroke-linejoin="round"/>
</g></svg>