<svg viewBox="0 0 36 38" fill="none" xmlns="http://www.w3.org/2000/svg" xmlns:xlink="http://www.w3.org/1999/xlink" x="0" y="0"><g id="SVG_24">
<path id="Vector_31" d="M21,28.5v-19c0,-0.84 -0.32,-1.65 -0.88,-2.24c-0.56,-0.59 -1.32,-0.93 -2.12,-0.93h-12c-0.8,0 -1.56,0.34 -2.12,0.93c-0.56,0.59 -0.88,1.4 -0.88,2.24v17.42c0,0.42 0.16,0.82 0.44,1.12c0.28,0.29 0.66,0.46 1.06,0.46h3" stroke="#CB997E" stroke-linecap="round" stroke-linejoin="round"/>
<path id="Vector_32" d="M22.5,28.5h-9" stroke="#CB997E" stroke-linecap="round" stroke-linejoin="round"/>
<path id="Vector_33" d="M28.5,28.5h3c0.4,0 0.78,-0.17 1.06,-0.46c0.28,-0.3 0.44,-0.7 0.44,-1.12v-5.78c0,-0.36 -0.12,-0.71 -0.33,-0.99l-5.22,-6.89c-0.14,-0.18 -0.32,-0.33 -0.52,-0.44c-0.2,-0.1 -0.43,-0.15 -0.65,-0.15h-5.28" stroke="#CB997E" stroke-linecap="round" stroke-linejoin="round"/>
<path id="Vector_34" d="M25.5,31.67c1.66,0 3,-1.42 3,-3.17c0,-1.75 -1.34,-3.17 -3,-3.17c-1.66,0 -3,1.42 -3,3.17c0,1.75 1.34,3.17 3,3.17z" stroke="#CB997E" stroke-linecap="round" stroke-linejoin="round"/>
<path id="Vector_35" d="M10.5,31.67c1.66,0 3,-1.42 3,-3.17c0,-1.75 -1.34,-3.17 -3,-3.17c-1.66,0 -3,1.42 -3,3.17c0,1.75 1.34,3.17 3,3.17z" stroke="#CB997E" stroke-linecap="round" stroke-linejoin="round"/>
</g></svg>