<svg viewBox="0 0 12.434 14.1664" fill="none" xmlns="http://www.w3.org/2000/svg" xmlns:xlink="http://www.w3.org/1999/xlink" x="0" y="0"><path id="Vector_86" d="M11.6837,5.8135c0,0.15 -0.12,0.27 -0.267,0.26c-0.784,-0.04 -1.549,-0.25 -2.241,-0.62c-0.188,-0.1 -0.426,0.03 -0.426,0.25v3.71c0,0.78 -0.228,1.55 -0.655,2.2c-0.428,0.65 -1.037,1.16 -1.753,1.47c-0.715,0.31 -1.505,0.41 -2.274,0.27c-0.768,-0.13 -1.481,-0.48 -2.05,-1.02c-0.57,-0.53 -0.971,-1.22 -1.155,-1.97c-0.184,-0.76 -0.142,-1.56 0.12,-2.29c0.262,-0.74 0.733,-1.38 1.355,-1.85c0.622,-0.47 1.368,-0.75 2.146,-0.8c0.034,0 0.069,0.01 0.102,0.02c0.032,0.01 0.062,0.03 0.087,0.05c0.025,0.03 0.045,0.06 0.058,0.09c0.014,0.03 0.02,0.07 0.019,0.1v1.87c0,0.14 -0.12,0.26 -0.265,0.29c-0.301,0.05 -0.581,0.18 -0.807,0.39c-0.227,0.2 -0.39,0.47 -0.471,0.76c-0.08,0.29 -0.075,0.61 0.015,0.9c0.09,0.29 0.262,0.55 0.495,0.74c0.233,0.2 0.517,0.33 0.82,0.37c0.302,0.04 0.61,-0.01 0.887,-0.14c0.276,-0.12 0.511,-0.33 0.675,-0.59c0.164,-0.25 0.251,-0.55 0.251,-0.86v-8.4c0,-0.07 0.028,-0.14 0.078,-0.19c0.05,-0.05 0.118,-0.07 0.189,-0.07h1.867c0.071,0 0.139,0.03 0.191,0.08c0.051,0.05 0.082,0.11 0.087,0.18c0.063,0.69 0.362,1.33 0.848,1.81c0.485,0.49 1.124,0.79 1.808,0.85c0.146,0.01 0.266,0.13 0.266,0.28z" stroke="white" stroke-width="1.5" stroke-linecap="round" stroke-linejoin="round"/></svg>