<svg viewBox="0 0 12.75 12.75" fill="none" xmlns="http://www.w3.org/2000/svg" xmlns:xlink="http://www.w3.org/1999/xlink" x="0" y="0"><g id="Group_7">
<path id="Vector_83" d="M12.75,6.375c0,0.84 -0.165,1.67 -0.485,2.44c-0.321,0.77 -0.79,1.48 -1.382,2.07c-0.592,0.59 -1.295,1.06 -2.068,1.38c-0.774,0.32 -1.603,0.48 -2.44,0.48c-0.837,0 -1.666,-0.16 -2.44,-0.48c-0.773,-0.32 -1.476,-0.79 -2.068,-1.38c-0.592,-0.59 -1.061,-1.3 -1.382,-2.07c-0.32,-0.77 -0.485,-1.6 -0.485,-2.44c0,-1.69 0.672,-3.31 1.867,-4.51c1.196,-1.19 2.817,-1.87 4.508,-1.87c1.691,0 3.312,0.68 4.508,1.87c1.195,1.2 1.867,2.82 1.867,4.51z" stroke="white" stroke-width="1.5" stroke-linecap="round" stroke-linejoin="round"/>
<path id="Vector_84" d="M3.153,7.215c-0.784,-1.61 0.284,-4.73 3.876,-4.22c3.957,0.56 3.245,6.72 -0.054,6.48c-1.044,-0.08 -1.439,-0.95 -1.542,-1.83M5.433,7.645c-0.078,-0.67 0.011,-1.35 0.113,-1.71c0.173,-0.6 0.46,-0.52 0.25,0.28c-0.102,0.39 -0.226,0.88 -0.363,1.43zM5.433,7.645c-0.364,1.46 -0.815,3.32 -1.155,4.75" stroke="white" stroke-width="1.5" stroke-linecap="round" stroke-linejoin="round"/>
</g></svg>