<svg viewBox="0 0 16 16" fill="none" xmlns="http://www.w3.org/2000/svg" xmlns:xlink="http://www.w3.org/1999/xlink" x="0" y="0"><defs><clipPath id="clip24_1_365">
<rect width="16" height="16" fill="white" transform="translate(0, 0)"/>
</clipPath></defs><g id="Link → SVG" clip-path="url(#clip24_1_365)">
<path id="Vector_80" d="M11.333,1.33h-6.666c-1.841,0 -3.334,1.5 -3.334,3.34v6.66c0,1.84 1.493,3.34 3.334,3.34h6.666c1.841,0 3.334,-1.5 3.334,-3.34v-6.66c0,-1.84 -1.493,-3.34 -3.334,-3.34z" stroke="white" stroke-linecap="round" stroke-linejoin="round"/>
<path id="Vector_81" d="M10.667,7.58c0.082,0.56 -0.013,1.12 -0.271,1.62c-0.258,0.5 -0.667,0.9 -1.168,1.15c-0.501,0.26 -1.069,0.34 -1.623,0.25c-0.554,-0.08 -1.065,-0.35 -1.462,-0.74c-0.396,-0.4 -0.658,-0.91 -0.747,-1.46c-0.089,-0.56 -0.001,-1.13 0.251,-1.63c0.252,-0.5 0.656,-0.91 1.154,-1.17c0.498,-0.25 1.064,-0.35 1.619,-0.27c0.566,0.09 1.09,0.35 1.494,0.76c0.405,0.4 0.669,0.92 0.753,1.49z" stroke="white" stroke-linecap="round" stroke-linejoin="round"/>
<path id="Vector_82" d="M11.667,4.33h0.006" stroke="white" stroke-linecap="round" stroke-linejoin="round"/>
</g></svg>